<svg width="120" height="120" viewBox="0 0 120 120" fill="none" xmlns="http://www.w3.org/2000/svg">
<circle cx="60" cy="60" r="58.5" stroke="#2F2859" stroke-width="3"/>
<path d="M30 60.0002L36.6667 43.3335H43.3333M30 60.0002H26.6667V76.6668H30M30 60.0002H43.3333M80 60.0002L73.3333 43.3335H60M80 60.0002H91.3333C92.4379 60.0002 93.3333 60.8956 93.3333 62.0002V76.6668H86.6667M80 60.0002H60M43.3333 76.6668H73.3333M43.3333 43.3335V60.0002M43.3333 43.3335H60M43.3333 60.0002H60M60 60.0002V43.3335" stroke="#2F2859" stroke-width="3"/>
<ellipse cx="36.6667" cy="76.6667" rx="6.66667" ry="6.66667" stroke="#2F2859" stroke-width="3"/>
<ellipse cx="80" cy="76.6667" rx="6.66666" ry="6.66667" stroke="#2F2859" stroke-width="3"/>
</svg>
